PathFileType	4	(X/Y/Z)	Patient4_TMGait_0pt5_01_right_44.trc.trc
DataRate	CameraRate	NumFrames	NumMarkers	Units	OrigDataRate	OrigDataStartFrame	OrigNumFrames
78.212290502793	78.212290502793	4	33	mm	78.212290502793	89	       141
Frame#	Time	L.ASIS			Sacral			L.Shoulder			Chest			R.Shoulder			Neck			R.ASIS			R.Thigh.Superior			R.Thigh.Lateral			R.Thigh.Inferior			R.Patella			L.Thigh.Superior			L.Thigh.Lateral			L.Thigh.Inferior			L.Patella			L.Shank.Superior			L.Shank.Lateral			L.Shank.Inferior			R.Shank.Superior			R.Shank.Lateral			R.Shank.Inferior			R.Heel			R.Midfoot.Superior			R.Midfoot.Lateral			R.Toe			L.Heel			L.Midfoot.Lateral			L.Midfoot.Superior			L.Toe			L.Elbow			L.Wrist			R.Elbow			R.Wrist			
		X1	Y1	Z1	X2	Y2	Z2	X3	Y3	Z3	X4	Y4	Z4	X5	Y5	Z5	X6	Y6	Z6	X7	Y7	Z7	X8	Y8	Z8	X9	Y9	Z9	X10	Y10	Z10	X11	Y11	Z11	X12	Y12	Z12	X13	Y13	Z13	X14	Y14	Z14	X15	Y15	Z15	X16	Y16	Z16	X17	Y17	Z17	X18	Y18	Z18	X19	Y19	Z19	X20	Y20	Z20	X21	Y21	Z21	X22	Y22	Z22	X23	Y23	Z23	X24	Y24	Z24	X25	Y25	Z25	X26	Y26	Z26	X27	Y27	Z27	X28	Y28	Z28	X29	Y29	Z29	X30	Y30	Z30	X31	Y31	Z31	X32	Y32	Z32	X33	Y33	Z33	

89	59.095142857143	873.331364528806	952.352532460922	259.932136636526	673.864480760190	1014.399867258815	431.955422259904	844.423260327193	1420.081763739012	210.683301999865	963.275107995219	1352.639977158037	361.615516438373	907.505411020790	1444.219033505820	538.522870255833	866.273788204006	1490.219838497960	355.202043246167	902.499352638890	938.070073936570	532.434162339927	934.862443346616	732.906343048709	509.543866699022	853.687436519518	627.333467010562	576.452433880655	927.519129358866	565.960544388033	497.264698683137	916.496929415967	458.178632752112	516.269213310953	939.627305815167	758.035149568356	296.816076217983	864.030010847409	635.124447823536	240.628817772398	957.603899245438	566.379772522203	303.868534932228	965.639884468097	493.761828735952	313.022113304983	937.614386180271	420.040159479304	306.139226796508	849.326953014520	304.668568141516	256.980332789916	901.344788371710	194.617830099846	327.869287744036	841.856629901769	391.473942573372	523.353670025781	725.465432363875	344.636231952126	585.466040797050	714.545677825702	236.862149444696	533.807457161674	513.271496532062	157.907782839882	509.422515450889	688.842856376227	123.302489762484	549.490182036337	580.893561156653	112.004479166744	584.711574105254	765.989489905565	31.919265397002	580.593487090054	772.538084822282	38.892776204702	370.221790525477	846.477488173544	35.477752020230	289.720041930049	930.126431980112	96.494240622387	315.485474249629	1058.503638564241	42.080590590049	287.840943583916	741.554927054167	1070.328482097025	132.035541293296	810.316023928352	818.705939564897	105.004360904578	974.592803587596	1100.623033139662	644.764356538202	1173.949327050734	981.944619231461	530.642126338898	
90	59.107928571429	873.486814324911	952.780406404846	257.836847038412	672.962732617014	1014.664266873303	428.738561008653	845.054493522563	1420.908528311511	208.990205465445	962.785930015403	1353.313177534737	360.751639892757	905.597136363049	1444.494113871369	537.428351762423	865.692026206063	1490.827966926748	353.805090436827	901.303191732409	938.565751839252	530.347137282070	937.885915829062	735.368713245154	507.540731691395	859.387639311754	628.473762617573	575.168203472736	934.955603335020	568.115739682995	496.413699548578	925.248511070424	459.314616206593	516.208227627909	938.267615492987	757.205584063657	293.662728976719	861.055329394134	635.032307813622	238.511600570812	954.104426052460	565.521363343682	301.505817340899	961.434721144311	493.056683328375	311.004661852876	933.108375250945	419.462139462929	304.462847341857	844.222014916486	304.362470154834	255.818667525916	895.695884312165	194.349987238650	327.141141764534	849.088751508464	393.078281771196	522.876906727479	730.974687473162	349.439443168403	584.165165902610	717.936058959041	241.660241788606	533.051278212658	515.165021341999	169.355273933543	507.455760435922	689.142055157639	127.929677995158	548.860948104760	580.441357169598	121.131606742376	583.421985585989	762.213432248614	32.131540472392	581.044763188844	766.132288185980	38.966236635842	370.099107993689	840.071853075776	35.443112430491	289.606903784861	923.811274801813	96.382051760002	315.287440824315	1052.147100597043	41.743984835573	287.721234506921	745.130923445488	1070.871533279283	127.397604052262	820.766104040940	821.277095104435	99.040933999921	968.356564824662	1100.075197795460	645.301935500644	1161.527742002457	964.768282165868	537.629265236840	
91	59.120714285714	873.492073665216	953.216134790358	255.834418874613	671.958982775656	1014.939293904401	425.675404335282	845.574991701413	1421.685321437495	207.444793678563	962.210687838623	1353.929533041944	360.003212665105	903.641396646823	1444.675727673849	536.484606396780	865.105290129392	1491.404185400660	352.539952811933	900.004705763164	939.045697154407	528.342980611973	940.732629294133	737.984326552581	505.571100713449	865.032638509652	629.818530709541	573.999528245311	942.249228280807	570.582312334094	495.641763068988	934.017329192602	460.838296944535	516.120729781722	936.746028071857	756.410299596513	290.611233608230	857.878322079562	634.973259398223	236.471497533810	950.385933040873	564.677021514690	299.186981821228	957.006271047463	492.388524039395	309.036822616255	928.420421304191	418.936235232896	302.831505755809	838.969853433359	304.088423378739	254.682151318866	889.956084245472	194.115316446406	326.421030278617	856.498436928196	394.925624137800	522.407045388046	736.829835762442	354.238361676534	582.868835993237	721.868334048259	246.496778055102	532.214457961946	517.952073532255	180.185517427944	505.243152134245	690.243475965696	132.820502055373	548.207211426489	580.939202955349	130.058341072265	581.983880391914	759.562275657265	32.894188878257	581.662847295976	759.718483180592	39.031360544037	369.965272824492	833.661344748436	35.409773974710	289.483819158138	917.469876823454	96.288453891515	315.078706982934	1045.768165473349	41.496512160187	287.599325088226	748.992122239544	1071.310341099775	122.804618603453	831.265550041925	823.894418076328	93.203225297388	961.691430017048	1099.518558214359	646.113520848118	1147.588324215310	948.410448053589	545.556549201357	
92	59.133500000000	873.356067185897	953.678663728086	253.938647335928	670.872473348439	1015.251454473778	422.785973141784	846.002777532088	1422.430777249978	206.038705169473	961.568135023583	1354.508344287672	359.360380127212	901.666489984989	1444.796147185870	535.674945071888	864.538663464647	1491.969389810080	351.396167445020	898.618856750846	939.546564242644	526.449190540190	943.358340103281	740.750116977639	503.686357571112	870.522194065120	631.386610508795	572.953259674332	949.301764654067	573.370742199922	494.965200685995	942.705294979352	462.772740065779	516.023383313626	935.042416370250	755.649135982440	287.739279969521	854.499041767449	634.956778088693	234.553150360580	946.417135392113	563.853603310361	296.997982837607	952.317969526850	491.761561618661	307.195694636079	923.517521822326	418.477058043682	301.297635790093	833.553528100735	303.857581588804	253.607022492967	884.112923816490	193.921128422737	325.734928150740	864.026242328911	397.022115422947	521.964829913411	742.988638736689	358.937258063404	581.607426938433	726.385020759665	251.248622559239	531.335098367832	521.657041740944	190.037801980093	502.869386444107	692.300123636583	137.805103708816	547.563677052616	582.516773896446	138.460106880565	580.448099437282	758.330543075467	34.258032642608	582.399051391452	753.296451234752	39.088440159627	369.827686434593	827.245157863287	35.380580803714	289.357362300700	911.103929172903	96.213446178068	314.867741110034	1039.368334926060	41.327439780063	287.476815058105	753.133276246298	1071.673388585061	118.296414057771	841.764430666059	826.550006590439	87.528660252477	954.498766552925	1099.006117480268	647.216016035882	1132.162391486491	933.091975919170	554.331747966120	
